{
  "source": "C:\\Users\\Peter\\Desktop\\stuff\\MIUN\\quantitative_research\\video_compression\\videos\\UVG\\ShakeNDry_1920x1080_120fps_420_8bit_YUV.y4m",
  "output": "C:\\Users\\Peter\\Desktop\\stuff\\MIUN\\quantitative_research\\video_compression\\compressed_videos\\UVG\\vp9\\3\\ShakeNDry_1920x1080_120fps_420_8bit_YUV_vp9.webm",
  "codec": "vp9",
  "ok": "[yuv4mpegpipe @ 00000226b7945280] Stream #0: not enough frames to estimate rate; consider increasing probesize\nInput #0, yuv4mpegpipe, from 'C:\\Users\\Peter\\Desktop\\stuff\\MIUN\\quantitative_research\\video_compression\\videos\\UVG\\ShakeNDry_1920x1080_120fps_420_8bit_YUV.y4m':\n  Duration: 00:00:02.50, start: 0.000000, bitrate: 2985989 kb/s\n  Stream #0:0: Video: rawvideo (I420 / 0x30323449), yuv420p(progressive), 1920x1080, 120 fps, 120 tbr, 120 tbn\n[out#0/webm @ 00000226b7948e00] Codec AVOption b:a (set bitrate (in bits/s)) has not been used for any stream. The most likely reason is either wrong type (e.g. a video option with no video streams) or that it is a private option of some decoder which was not actually used for any stream.\nStream mapping:\n  Stream #0:0 -> #0:0 (rawvideo (native) -> vp9 (libvpx-vp9))\nPress [q] to stop, [?] for help\n[libvpx-vp9 @ 00000226b794bf80] v1.15.2-100-g40561f514\nOutput #0, webm, to 'C:\\Users\\Peter\\Desktop\\stuff\\MIUN\\quantitative_research\\video_compression\\compressed_videos\\UVG\\vp9\\3\\ShakeNDry_1920x1080_120fps_420_8bit_YUV_vp9.webm':\n  Metadata:\n    encoder         : Lavf62.3.100\n  Stream #0:0: Video: vp9, yuv420p(tv, progressive), 1920x1080, q=2-31, 3000 kb/s, 120 fps, 1k tbn\n    Metadata:\n      encoder         : Lavc62.11.100 libvpx-vp9\n    Side data:\n      cpb: bitrate max/min/avg: 0/0/0 buffer size: 3000000 vbv_delay: N/A\nframe=    1 fps=0.0 q=39.0 size=       0KiB time=00:00:00.00 bitrate= 461.8kbits/s speed=0.0161x elapsed=0:00:00.51    \nframe=    7 fps=6.8 q=57.0 size=       0KiB time=00:00:00.05 bitrate=  66.0kbits/s speed=0.0566x elapsed=0:00:01.03    \nframe=   12 fps=7.8 q=57.0 size=       0KiB time=00:00:00.10 bitrate=  38.5kbits/s speed=0.0648x elapsed=0:00:01.54    \nframe=   17 fps=8.3 q=57.0 size=       0KiB time=00:00:00.14 bitrate=  27.2kbits/s speed=0.0689x elapsed=0:00:02.05    \nframe=   22 fps=8.5 q=57.0 size=       0KiB time=00:00:00.18 bitrate=  21.0kbits/s speed=0.071x elapsed=0:00:02.58    \nframe=   26 fps=8.4 q=57.0 size=       0KiB time=00:00:00.21 bitrate=  17.8kbits/s speed=0.0701x elapsed=0:00:03.09    \nframe=   30 fps=8.3 q=57.0 size=       0KiB time=00:00:00.25 bitrate=  15.4kbits/s speed=0.0694x elapsed=0:00:03.60    \nframe=   35 fps=8.5 q=57.0 size=       0KiB time=00:00:00.29 bitrate=  13.2kbits/s speed=0.0708x elapsed=0:00:04.12    \nframe=   39 fps=8.4 q=57.0 size=       0KiB time=00:00:00.32 bitrate=  11.8kbits/s speed=0.0702x elapsed=0:00:04.63    \nframe=   44 fps=8.5 q=57.0 size=       0KiB time=00:00:00.36 bitrate=  10.5kbits/s speed=0.0712x elapsed=0:00:05.14    \nframe=   48 fps=8.5 q=58.0 size=       0KiB time=00:00:00.40 bitrate=   9.6kbits/s speed=0.0706x elapsed=0:00:05.66    \nframe=   53 fps=8.6 q=58.0 size=       0KiB time=00:00:00.44 bitrate=   8.7kbits/s speed=0.0714x elapsed=0:00:06.18    \nframe=   58 fps=8.7 q=57.0 size=       0KiB time=00:00:00.48 bitrate=   8.0kbits/s speed=0.0721x elapsed=0:00:06.69    \nframe=   61 fps=8.4 q=40.0 size=       0KiB time=00:00:00.50 bitrate=   7.6kbits/s speed=0.0704x elapsed=0:00:07.22    \nframe=   66 fps=8.5 q=57.0 size=       0KiB time=00:00:00.55 bitrate=   7.0kbits/s speed=0.0712x elapsed=0:00:07.72    \nframe=   71 fps=8.6 q=57.0 size=       0KiB time=00:00:00.59 bitrate=   6.5kbits/s speed=0.0718x elapsed=0:00:08.24    \nframe=   75 fps=8.6 q=57.0 size=       0KiB time=00:00:00.62 bitrate=   6.2kbits/s speed=0.0714x elapsed=0:00:08.75    \nframe=   79 fps=8.5 q=57.0 size=       0KiB time=00:00:00.65 bitrate=   5.8kbits/s speed=0.071x elapsed=0:00:09.27    \nframe=   85 fps=8.7 q=56.0 size=       0KiB time=00:00:00.70 bitrate=   5.4kbits/s speed=0.0723x elapsed=0:00:09.79    \nframe=   90 fps=8.7 q=56.0 size=       0KiB time=00:00:00.75 bitrate=   5.1kbits/s speed=0.0728x elapsed=0:00:10.30    \nframe=   93 fps=8.6 q=57.0 size=       0KiB time=00:00:00.77 bitrate=   5.0kbits/s speed=0.0716x elapsed=0:00:10.82    \nframe=   99 fps=8.7 q=56.0 size=       0KiB time=00:00:00.82 bitrate=   4.7kbits/s speed=0.0727x elapsed=0:00:11.34    \nframe=  104 fps=8.8 q=55.0 size=       0KiB time=00:00:00.86 bitrate=   4.4kbits/s speed=0.0731x elapsed=0:00:11.85    \nframe=  108 fps=8.7 q=56.0 size=       0KiB time=00:00:00.90 bitrate=   4.3kbits/s speed=0.0727x elapsed=0:00:12.38    \nframe=  114 fps=8.8 q=55.0 size=       0KiB time=00:00:00.95 bitrate=   4.1kbits/s speed=0.0736x elapsed=0:00:12.90    \nframe=  118 fps=8.8 q=54.0 size=       0KiB time=00:00:00.98 bitrate=   3.9kbits/s speed=0.0733x elapsed=0:00:13.41    \nframe=  123 fps=8.8 q=55.0 size=       0KiB time=00:00:01.02 bitrate=   3.8kbits/s speed=0.0736x elapsed=0:00:13.93    \nframe=  128 fps=8.9 q=54.0 size=       0KiB time=00:00:01.06 bitrate=   3.6kbits/s speed=0.0738x elapsed=0:00:14.45    \nframe=  133 fps=8.9 q=53.0 size=     256KiB time=00:00:01.10 bitrate=1892.2kbits/s speed=0.074x elapsed=0:00:14.96    \nframe=  140 fps=9.0 q=52.0 size=     256KiB time=00:00:01.16 bitrate=1797.6kbits/s speed=0.0753x elapsed=0:00:15.48    \nframe=  144 fps=9.0 q=37.0 size=     256KiB time=00:00:01.20 bitrate=1747.6kbits/s speed=0.075x elapsed=0:00:15.99    \nframe=  150 fps=9.1 q=49.0 size=     256KiB time=00:00:01.25 bitrate=1677.7kbits/s speed=0.0757x elapsed=0:00:16.51    \nframe=  156 fps=9.2 q=48.0 size=     256KiB time=00:00:01.30 bitrate=1613.2kbits/s speed=0.0764x elapsed=0:00:17.02    \nframe=  160 fps=9.1 q=48.0 size=     256KiB time=00:00:01.33 bitrate=1572.9kbits/s speed=0.076x elapsed=0:00:17.54    \nframe=  165 fps=9.1 q=46.0 size=     256KiB time=00:00:01.37 bitrate=1525.2kbits/s speed=0.0761x elapsed=0:00:18.06    \nframe=  170 fps=9.2 q=46.0 size=     256KiB time=00:00:01.41 bitrate=1480.3kbits/s speed=0.0763x elapsed=0:00:18.57    \nframe=  173 fps=9.1 q=47.0 size=     256KiB time=00:00:01.44 bitrate=1454.7kbits/s speed=0.0755x elapsed=0:00:19.09    \nframe=  179 fps=9.1 q=47.0 size=     256KiB time=00:00:01.49 bitrate=1405.9kbits/s speed=0.0761x elapsed=0:00:19.60    \nframe=  185 fps=9.2 q=48.0 size=     256KiB time=00:00:01.54 bitrate=1360.3kbits/s speed=0.0766x elapsed=0:00:20.12    \nframe=  188 fps=9.1 q=48.0 size=     256KiB time=00:00:01.56 bitrate=1338.6kbits/s speed=0.0759x elapsed=0:00:20.63    \nframe=  194 fps=9.2 q=48.0 size=     256KiB time=00:00:01.61 bitrate=1297.2kbits/s speed=0.0764x elapsed=0:00:21.15    \nframe=  199 fps=9.2 q=48.0 size=     256KiB time=00:00:01.65 bitrate=1264.6kbits/s speed=0.0765x elapsed=0:00:21.66    \nframe=  203 fps=9.2 q=48.0 size=     256KiB time=00:00:01.69 bitrate=1239.7kbits/s speed=0.0763x elapsed=0:00:22.18    \nframe=  209 fps=9.2 q=48.0 size=     256KiB time=00:00:01.74 bitrate=1204.1kbits/s speed=0.0767x elapsed=0:00:22.70    \nframe=  214 fps=9.2 q=48.0 size=     256KiB time=00:00:01.78 bitrate=1176.0kbits/s speed=0.0768x elapsed=0:00:23.21    \nframe=  218 fps=9.2 q=48.0 size=     256KiB time=00:00:01.81 bitrate=1154.4kbits/s speed=0.0766x elapsed=0:00:23.72    \nframe=  224 fps=9.2 q=46.0 size=     256KiB time=00:00:01.86 bitrate=1123.5kbits/s speed=0.077x elapsed=0:00:24.24    \nframe=  231 fps=9.3 q=46.0 size=     256KiB time=00:00:01.92 bitrate=1089.4kbits/s speed=0.0777x elapsed=0:00:24.76    \nframe=  235 fps=9.3 q=48.0 size=     256KiB time=00:00:01.95 bitrate=1070.9kbits/s speed=0.0775x elapsed=0:00:25.27    \nframe=  241 fps=9.3 q=47.0 size=     256KiB time=00:00:02.00 bitrate=1044.2kbits/s speed=0.0779x elapsed=0:00:25.79    \nframe=  244 fps=9.3 q=47.0 size=     256KiB time=00:00:02.03 bitrate=1031.4kbits/s speed=0.0773x elapsed=0:00:26.30    \nframe=  250 fps=9.3 q=46.0 size=     256KiB time=00:00:02.08 bitrate=1006.6kbits/s speed=0.0777x elapsed=0:00:26.82    \nframe=  256 fps=9.4 q=47.0 size=     256KiB time=00:00:02.13 bitrate= 983.0kbits/s speed=0.078x elapsed=0:00:27.34    \nframe=  260 fps=9.3 q=43.0 size=     512KiB time=00:00:02.16 bitrate=1935.8kbits/s speed=0.0778x elapsed=0:00:27.85    \nframe=  265 fps=9.3 q=42.0 size=     512KiB time=00:00:02.20 bitrate=1899.3kbits/s speed=0.0778x elapsed=0:00:28.37    \nframe=  271 fps=9.4 q=41.0 size=     512KiB time=00:00:02.25 bitrate=1857.3kbits/s speed=0.0782x elapsed=0:00:28.88    \nframe=  275 fps=9.4 q=42.0 size=     512KiB time=00:00:02.29 bitrate=1830.2kbits/s speed=0.0779x elapsed=0:00:29.40    \nframe=  276 fps=9.2 q=42.0 size=     512KiB time=00:00:02.30 bitrate=1823.6kbits/s speed=0.0769x elapsed=0:00:29.91    \nframe=  276 fps=9.1 q=42.0 size=     512KiB time=00:00:02.30 bitrate=1823.6kbits/s speed=0.0756x elapsed=0:00:30.43    \nframe=  276 fps=8.9 q=42.0 size=     512KiB time=00:00:02.30 bitrate=1823.6kbits/s speed=0.0743x elapsed=0:00:30.94    \nframe=  276 fps=8.8 q=42.0 size=     512KiB time=00:00:02.30 bitrate=1823.6kbits/s speed=0.0731x elapsed=0:00:31.46    \nframe=  276 fps=8.6 q=42.0 size=     512KiB time=00:00:02.30 bitrate=1823.6kbits/s speed=0.0719x elapsed=0:00:31.99    \nframe=  276 fps=8.5 q=42.0 size=     512KiB time=00:00:02.30 bitrate=1823.6kbits/s speed=0.0707x elapsed=0:00:32.51    \nframe=  276 fps=8.4 q=42.0 size=     512KiB time=00:00:02.30 bitrate=1823.6kbits/s speed=0.0696x elapsed=0:00:33.02    \n[out#0/webm @ 00000226b7948e00] video:952KiB audio:0KiB subtitle:0KiB other streams:0KiB global headers:0KiB muxing overhead: 0.275453%\nframe=  300 fps=9.1 q=36.0 Lsize=     955KiB time=00:00:02.50 bitrate=3127.8kbits/s speed=0.0756x elapsed=0:00:33.06    \n",
  "seconds": 33.219695806503296,
  "probe_out": {}
}